# Blender 5.1.2
# www.blender.org
mtllib gayRoom.mtl
o MainRoom
v -4.983263 -4.983263 4.983263
v -4.983263 4.983263 4.983263
v -4.983263 -4.983263 -4.983263
v -4.983263 4.983263 -4.983263
v 4.983263 -4.983263 4.983263
v 4.983263 4.983263 4.983263
v 4.983263 -4.983263 -4.983263
v 4.983263 4.983263 -4.983263
v -4.983263 -4.983263 4.983263
v -4.983263 4.983263 4.983263
v 4.983263 -4.983263 4.983263
v 4.983263 4.983263 4.983263
v -4.764947 -4.764947 -4.764947
v -4.715882 -4.715882 4.983263
v -4.715882 4.715882 4.983263
v -4.764947 4.764947 -4.764947
v 4.764947 -4.764947 -4.764947
v 4.764947 4.764947 -4.764947
v 4.715882 -4.715882 4.983263
v 4.715882 4.715882 4.983263
vn -1.0000 -0.0000 -0.0000
vn -0.0000 -0.0000 -1.0000
vn 1.0000 -0.0000 -0.0000
vn -0.0000 -1.0000 -0.0000
vn -0.0000 1.0000 -0.0000
vn -0.0000 -0.0000 1.0000
vn 1.0000 -0.0000 -0.0050
vn -1.0000 -0.0000 -0.0050
vn -0.0000 1.0000 -0.0050
vn -0.0000 -1.0000 -0.0050
vt 0.625000 0.000000
vt 0.375000 0.250000
vt 0.375000 0.000000
vt 0.625000 0.250000
vt 0.375000 0.500000
vt 0.625000 0.500000
vt 0.375000 0.750000
vt 0.125000 0.750000
vt 0.125000 0.500000
vt 0.875000 0.500000
vt 0.625000 0.750000
vt 0.875000 0.750000
s 0
g MainRoom_RoomLeftWall
usemtl RoomLeftWall
f 2/1/1 3/2/1 1/3/1
f 1/3/5 10/1/5 9/3/5
f 5/7/5 9/8/5 11/7/5
f 2/12/5 12/11/5 10/12/5
f 6/11/5 11/7/5 12/11/5
f 14/3/6 10/1/6 9/3/6
f 13/2/7 15/1/7 14/3/7
f 2/1/1 4/4/1 3/2/1
f 1/3/5 2/1/5 10/1/5
f 5/7/5 1/8/5 9/8/5
f 2/12/5 6/11/5 12/11/5
f 6/11/5 5/7/5 11/7/5
f 14/3/6 15/1/6 10/1/6
f 13/2/7 16/4/7 15/1/7
g MainRoom_RoomFloor
usemtl RoomFloor
f 7/5/4 1/8/4 3/9/4
f 19/7/6 9/8/6 11/7/6
f 14/8/9 17/5/9 13/9/9
f 7/5/4 5/7/4 1/8/4
f 19/7/6 14/8/6 9/8/6
f 14/8/9 19/7/9 17/5/9
g MainRoom_RoomBackWall
usemtl RoomBackWall
f 4/4/2 7/5/2 3/2/2
f 17/5/6 16/4/6 13/2/6
f 4/4/2 8/6/2 7/5/2
f 17/5/6 18/6/6 16/4/6
g MainRoom_RoomRightWall
usemtl RoomRightWall
f 8/6/3 5/7/3 7/5/3
f 20/11/6 11/7/6 12/11/6
f 19/7/8 18/6/8 17/5/8
f 8/6/3 6/11/3 5/7/3
f 20/11/6 19/7/6 11/7/6
f 19/7/8 20/11/8 18/6/8
g MainRoom_RoomCeiling
usemtl RoomCeiling
f 4/10/5 6/11/5 8/6/5
f 15/12/6 12/11/6 10/12/6
f 20/11/10 16/10/10 18/6/10
f 4/10/5 2/12/5 6/11/5
f 15/12/6 20/11/6 12/11/6
f 20/11/10 15/12/10 16/10/10
o Light
v -1.480453 4.566273 1.480453
v 1.480453 4.566273 1.480453
v -1.480453 4.566273 -1.480453
v 1.480453 4.566273 -1.480453
v -1.480453 4.754733 -1.480453
v -1.480453 4.754733 1.480453
v 1.480453 4.754733 1.480453
v 1.480453 4.754733 -1.480453
vn -0.0000 -1.0000 -0.0000
vn -0.0000 1.0000 -0.0000
vn 1.0000 -0.0000 -0.0000
vn -1.0000 -0.0000 -0.0000
vn -0.0000 -0.0000 -1.0000
vn -0.0000 -0.0000 1.0000
vt 0.000000 1.000000
vt 1.000000 0.000000
vt 0.000000 0.000000
vt 1.000000 1.000000
s 0
g Light_CeilingLight
usemtl CeilingLight
f 23/13/11 22/14/11 21/15/11
f 27/14/12 25/13/12 26/15/12
f 24/16/13 27/14/13 22/14/13
f 21/15/14 25/13/14 23/13/14
f 23/13/15 28/16/15 24/16/15
f 22/14/16 26/15/16 21/15/16
f 23/13/11 24/16/11 22/14/11
f 27/14/12 28/16/12 25/13/12
f 24/16/13 28/16/13 27/14/13
f 21/15/14 26/15/14 25/13/14
f 23/13/15 25/13/15 28/16/15
f 22/14/16 27/14/16 26/15/16
o TransFlag
v -4.755944 0.539067 2.784098
v -4.755944 3.947574 2.784098
v -4.755944 0.539067 -2.694932
v -4.755944 3.947574 -2.694932
v -4.616970 0.539067 2.784098
v -4.616970 3.947574 2.784098
v -4.616970 0.539067 -2.694932
v -4.616970 3.947574 -2.694932
v -4.755944 1.220768 2.784098
v -4.755944 1.902470 2.784098
v -4.755944 2.584171 2.784098
v -4.755944 3.265873 2.784098
v -4.755944 3.265873 -2.694932
v -4.755944 2.584171 -2.694932
v -4.755944 1.902470 -2.694932
v -4.755944 1.220768 -2.694932
v -4.616970 3.265873 -2.694932
v -4.616970 2.584171 -2.694932
v -4.616970 1.902470 -2.694932
v -4.616970 1.220768 -2.694932
v -4.616970 3.265873 2.784098
v -4.616970 2.584171 2.784098
v -4.616970 1.902470 2.784098
v -4.616970 1.220768 2.784098
vn -1.0000 -0.0000 -0.0000
vn -0.0000 -0.0000 -1.0000
vn 1.0000 -0.0000 -0.0000
vn -0.0000 -0.0000 1.0000
vn -0.0000 -1.0000 -0.0000
vn -0.0000 1.0000 -0.0000
vt 0.625000 0.000000
vt 0.575000 0.250000
vt 0.575000 0.000000
vt 0.625000 0.250000
vt 0.575000 0.500000
vt 0.625000 0.500000
vt 0.575000 0.750000
vt 0.625000 0.750000
vt 0.575000 1.000000
vt 0.375000 0.500000
vt 0.125000 0.750000
vt 0.125000 0.500000
vt 0.875000 0.500000
vt 0.425000 0.750000
vt 0.375000 1.000000
vt 0.375000 0.750000
vt 0.475000 0.750000
vt 0.425000 1.000000
vt 0.525000 0.750000
vt 0.475000 1.000000
vt 0.525000 1.000000
vt 0.425000 0.500000
vt 0.475000 0.500000
vt 0.525000 0.500000
vt 0.425000 0.250000
vt 0.375000 0.250000
vt 0.475000 0.250000
vt 0.525000 0.250000
vt 0.425000 0.000000
vt 0.375000 0.000000
vt 0.475000 0.000000
vt 0.525000 0.000000
vt 0.625000 1.000000
vt 0.875000 0.750000
s 0
g TransFlag_TransPink
usemtl TransPink
f 30/17/17 41/18/17 40/19/17
f 32/20/18 45/21/18 41/18/18
f 36/22/19 49/23/19 45/21/19
f 34/24/20 40/25/20 49/23/20
f 35/26/21 29/27/21 31/28/21
f 32/29/22 34/24/22 36/22/22
f 52/30/20 29/31/20 33/32/20
f 48/38/19 33/32/19 35/26/19
f 44/41/18 35/26/18 31/42/18
f 37/45/17 31/42/17 29/46/17
f 30/17/17 32/20/17 41/18/17
f 32/20/18 36/22/18 45/21/18
f 36/22/19 34/24/19 49/23/19
f 34/24/20 30/49/20 40/25/20
f 35/26/21 33/32/21 29/27/21
f 32/29/22 30/50/22 34/24/22
f 52/30/20 37/34/20 29/31/20
f 48/38/19 52/30/19 33/32/19
f 44/41/18 48/38/18 35/26/18
f 37/45/17 44/41/17 31/42/17
g TransFlag_TransBlue
usemtl TransBlue
f 51/33/20 37/34/20 52/30/20
f 49/23/20 39/37/20 50/35/20
f 47/39/19 52/30/19 48/38/19
f 45/21/19 50/35/19 46/40/19
f 43/43/18 48/38/18 44/41/18
f 41/18/18 46/40/18 42/44/18
f 38/47/17 44/41/17 37/45/17
f 40/19/17 42/44/17 39/48/17
f 51/33/20 38/36/20 37/34/20
f 49/23/20 40/25/20 39/37/20
f 47/39/19 51/33/19 52/30/19
f 45/21/19 49/23/19 50/35/19
f 43/43/18 47/39/18 48/38/18
f 41/18/18 45/21/18 46/40/18
f 38/47/17 43/43/17 44/41/17
f 40/19/17 41/18/17 42/44/17
g TransFlag_TransWhite
usemtl TransWhite
f 50/35/20 38/36/20 51/33/20
f 46/40/19 51/33/19 47/39/19
f 42/44/18 47/39/18 43/43/18
f 39/48/17 43/43/17 38/47/17
f 50/35/20 39/37/20 38/36/20
f 46/40/19 50/35/19 51/33/19
f 42/44/18 46/40/18 47/39/18
f 39/48/17 42/44/17 43/43/17
o FrenchFlag
v -2.944495 1.759795 -4.766136
v -2.944495 3.759795 -4.766136
v -2.944495 1.759795 -4.698883
v -2.944495 3.759795 -4.698883
v -0.080898 1.759795 -4.766136
v -0.080898 3.759795 -4.766136
v -0.080898 1.759795 -4.698883
v -0.080898 3.759795 -4.698883
v -1.035430 1.759795 -4.698883
v -1.989963 1.759795 -4.698883
v -1.989963 3.759795 -4.698883
v -1.035430 3.759795 -4.698883
v -1.989963 1.759795 -4.766136
v -1.035430 1.759795 -4.766136
v -1.035430 3.759795 -4.766136
v -1.989963 3.759795 -4.766136
vn -0.0000 -1.0000 -0.0000
vn -0.0000 1.0000 -0.0000
vn -0.0000 -0.0000 -1.0000
vn 1.0000 -0.0000 -0.0000
vn -0.0000 -0.0000 1.0000
vn -1.0000 -0.0000 -0.0000
vt 0.375000 0.500000
vt 0.291667 0.750000
vt 0.291667 0.500000
vt 0.875000 0.500000
vt 0.791667 0.750000
vt 0.791667 0.500000
vt 0.625000 0.916667
vt 0.375000 1.000000
vt 0.375000 0.916667
vt 0.625000 0.500000
vt 0.375000 0.750000
vt 0.625000 0.416667
vt 0.375000 0.416667
vt 0.625000 0.000000
vt 0.375000 0.250000
vt 0.375000 0.000000
vt 0.625000 0.250000
vt 0.375000 0.333333
vt 0.625000 0.333333
vt 0.625000 0.750000
vt 0.375000 0.833333
vt 0.625000 0.833333
vt 0.708333 0.500000
vt 0.708333 0.750000
vt 0.208333 0.500000
vt 0.125000 0.750000
vt 0.125000 0.500000
vt 0.208333 0.750000
vt 0.875000 0.750000
vt 0.625000 1.000000
s 0
g FrenchFlag_FrenchWhite
usemtl FrenchWhite
f 59/51/23 61/53/23 66/52/23
f 63/69/27 62/68/27 61/63/27
f 67/72/25 66/71/25 65/59/25
f 63/56/24 64/73/24 67/74/24
f 61/53/23 62/75/23 65/78/23
f 59/51/23 66/52/23 57/61/23
f 63/69/27 61/63/27 64/62/27
f 67/72/25 65/59/25 68/57/25
f 63/56/24 67/74/24 68/55/24
f 61/53/23 65/78/23 66/52/23
g FrenchFlag_FrenchBlue
usemtl FrenchBlue
f 56/54/24 63/56/24 68/55/24
f 68/57/25 65/59/25 53/58/25
f 54/64/28 53/66/28 55/65/28
f 56/67/27 55/65/27 62/68/27
f 62/75/23 55/77/23 53/76/23
f 56/54/24 68/55/24 54/79/24
f 68/57/25 53/58/25 54/80/25
f 54/64/28 55/65/28 56/67/28
f 56/67/27 62/68/27 63/69/27
f 62/75/23 53/76/23 65/78/23
g FrenchFlag_FrenchRed
usemtl FrenchRed
f 60/60/26 59/51/26 57/61/26
f 64/62/27 61/63/27 59/51/27
f 58/70/25 57/61/25 66/71/25
f 64/73/24 60/60/24 58/70/24
f 60/60/26 57/61/26 58/70/26
f 64/62/27 59/51/27 60/60/27
f 58/70/25 66/71/25 67/72/25
f 64/73/24 58/70/24 67/74/24
o Mirror.001
v 4.610328 -1.883066 3.438293
v 4.610328 2.083520 3.438293
v 4.610328 -1.883066 -1.965179
v 4.610328 2.083520 -1.965179
v 4.748705 -1.883066 3.438293
v 4.748705 2.083520 3.438293
v 4.748705 -1.883066 -1.965179
v 4.748705 2.083520 -1.965179
vn -1.0000 -0.0000 -0.0000
vn -0.0000 -0.0000 -1.0000
vn 1.0000 -0.0000 -0.0000
vn -0.0000 -0.0000 1.0000
vn -0.0000 -1.0000 -0.0000
vn -0.0000 1.0000 -0.0000
vt 0.625000 0.000000
vt 0.375000 0.250000
vt 0.375000 0.000000
vt 0.625000 0.250000
vt 0.375000 0.500000
vt 0.625000 0.500000
vt 0.375000 0.750000
vt 0.625000 0.750000
vt 0.375000 1.000000
vt 0.125000 0.750000
vt 0.125000 0.500000
vt 0.875000 0.500000
vt 0.625000 1.000000
vt 0.875000 0.750000
s 0
g Mirror.001_Mirror
usemtl Mirror
f 70/81/29 71/82/29 69/83/29
f 72/84/30 75/85/30 71/82/30
f 76/86/31 73/87/31 75/85/31
f 74/88/32 69/89/32 73/87/32
f 75/85/33 69/90/33 71/91/33
f 72/92/34 74/88/34 76/86/34
f 70/81/29 72/84/29 71/82/29
f 72/84/30 76/86/30 75/85/30
f 76/86/31 74/88/31 73/87/31
f 74/88/32 70/93/32 69/89/32
f 75/85/33 73/87/33 69/90/33
f 72/92/34 70/94/34 74/88/34
o PanFlag
v -0.597602 -1.641076 -4.588365
v -0.597602 0.611905 -4.588365
v 3.225002 -1.641076 -4.588365
v 3.225002 0.611905 -4.588365
v -0.597602 -1.641076 -4.776893
v -0.597602 0.611905 -4.776893
v 3.225002 -1.641076 -4.776893
v 3.225002 0.611905 -4.776893
v -0.597602 -0.890083 -4.588365
v -0.597602 -0.139089 -4.588365
v 3.225002 -0.139089 -4.588365
v 3.225002 -0.890083 -4.588365
v 3.225002 -0.139089 -4.776893
v 3.225002 -0.890083 -4.776893
v -0.597602 -0.139089 -4.776893
v -0.597602 -0.890083 -4.776893
vn -0.0000 -0.0000 1.0000
vn 1.0000 -0.0000 -0.0000
vn -0.0000 -0.0000 -1.0000
vn -1.0000 -0.0000 -0.0000
vn -0.0000 -1.0000 -0.0000
vn -0.0000 1.0000 -0.0000
vt 0.625000 0.000000
vt 0.541667 0.250000
vt 0.541667 0.000000
vt 0.625000 0.250000
vt 0.541667 0.500000
vt 0.625000 0.500000
vt 0.541667 0.750000
vt 0.625000 0.750000
vt 0.541667 1.000000
vt 0.375000 0.500000
vt 0.125000 0.750000
vt 0.125000 0.500000
vt 0.875000 0.500000
vt 0.458333 0.750000
vt 0.375000 1.000000
vt 0.375000 0.750000
vt 0.458333 1.000000
vt 0.458333 0.500000
vt 0.458333 0.250000
vt 0.375000 0.250000
vt 0.458333 0.000000
vt 0.375000 0.000000
vt 0.625000 1.000000
vt 0.875000 0.750000
s 0
g PanFlag_PanPink
usemtl PanPink
f 78/95/35 86/97/35 87/96/35
f 80/98/36 87/96/36 89/99/36
f 84/100/37 89/99/37 91/101/37
f 82/102/38 91/101/38 86/103/38
f 80/107/40 84/100/40 82/102/40
f 88/113/36 79/114/36 83/104/36
f 78/95/35 87/96/35 80/98/35
f 80/98/36 89/99/36 84/100/36
f 84/100/37 91/101/37 82/102/37
f 82/102/38 86/103/38 78/117/38
f 80/107/40 82/102/40 78/118/40
f 88/113/36 83/104/36 90/112/36
g PanFlag_PanYellow
usemtl PanYellow
f 91/101/38 92/108/38 85/111/38
f 89/99/37 90/112/37 92/108/37
f 87/96/36 88/113/36 90/112/36
f 86/97/35 85/115/35 88/113/35
f 91/101/38 85/111/38 86/103/38
f 89/99/37 92/108/37 91/101/37
f 87/96/36 90/112/36 89/99/36
f 86/97/35 88/113/35 87/96/35
g PanFlag_PanBlue
usemtl PanBlue
f 83/104/39 79/106/39 77/105/39
f 92/108/38 81/110/38 77/109/38
f 90/112/37 83/104/37 81/110/37
f 85/115/35 77/116/35 79/114/35
f 83/104/39 77/105/39 81/110/39
f 92/108/38 77/109/38 85/111/38
f 90/112/37 81/110/37 92/108/37
f 85/115/35 79/114/35 88/113/35
o Cube
v 3.930009 -4.786425 -2.086979
v 3.975119 -4.820551 -2.139008
v 2.019540 -4.794314 -3.738180
v 2.064650 -4.828441 -3.790210
v 4.761131 -2.202889 -3.060945
v 4.806241 -2.237015 -3.112975
v 2.850662 -2.210779 -4.712147
v 2.895772 -2.244905 -4.764176
vn -0.2882 -0.8960 0.3378
vn -0.7566 -0.0031 -0.6539
vn 0.2882 0.8960 -0.3378
vn 0.7566 0.0031 0.6539
vn -0.5870 0.4440 0.6770
vn 0.5870 -0.4440 -0.6770
vt 0.625000 0.000000
vt 0.375000 0.250000
vt 0.375000 0.000000
vt 0.625000 0.250000
vt 0.375000 0.500000
vt 0.625000 0.500000
vt 0.375000 0.750000
vt 0.625000 0.750000
vt 0.375000 1.000000
vt 0.125000 0.750000
vt 0.125000 0.500000
vt 0.875000 0.500000
vt 0.625000 1.000000
vt 0.875000 0.750000
s 0
g Cube_Mirror
usemtl Mirror
f 94/119/41 93/121/41 95/120/41
f 96/122/42 95/120/42 99/123/42
f 100/124/43 99/123/43 97/125/43
f 98/126/44 97/125/44 93/127/44
f 99/123/45 95/129/45 93/128/45
f 96/130/46 100/124/46 98/126/46
f 94/119/41 95/120/41 96/122/41
f 96/122/42 99/123/42 100/124/42
f 100/124/43 97/125/43 98/126/43
f 98/126/44 93/127/44 94/131/44
f 99/123/45 93/128/45 97/125/45
f 96/130/46 98/126/46 94/132/46
o FloorLight
v -4.667419 -2.944458 -3.204398
v -4.089961 -4.851539 -2.659242
v -3.211905 -2.944458 -4.746156
v -2.634446 -4.851539 -4.200999
v -3.989527 -4.794024 -2.564426
v -4.566985 -2.886943 -3.109582
v -3.111471 -2.886943 -4.651340
v -2.534012 -4.794024 -4.106184
vn -0.6865 -0.0000 0.7272
vn 0.6865 -0.0000 -0.7272
vn -0.6713 -0.3844 -0.6337
vn -0.2795 0.9232 -0.2639
vn 0.2795 -0.9232 0.2639
vn 0.6713 0.3844 0.6337
vt 0.625000 0.000000
vt 0.375000 0.250000
vt 0.375000 0.000000
vt 0.625000 0.750000
vt 0.375000 0.500000
vt 0.625000 0.500000
vt 0.375000 1.000000
vt 0.375000 0.750000
vt 0.125000 0.500000
vt 0.875000 0.750000
vt 0.875000 0.500000
vt 0.625000 0.250000
vt 0.625000 1.000000
vt 0.125000 0.750000
s 0
g FloorLight_FloorLight
usemtl FloorLight
f 102/133/47 106/134/47 101/135/47
f 104/136/48 107/137/48 108/138/48
f 104/136/49 101/139/49 103/140/49
f 103/140/50 106/141/50 107/137/50
f 102/142/51 108/138/51 105/143/51
f 105/144/52 107/137/52 106/134/52
f 102/133/47 105/144/47 106/134/47
f 104/136/48 103/140/48 107/137/48
f 104/136/49 102/145/49 101/139/49
f 103/140/50 101/146/50 106/141/50
f 102/142/51 104/136/51 108/138/51
f 105/144/52 108/138/52 107/137/52
o Chair
v -4.585303 -4.742830 2.957108
v -4.177306 -4.742830 2.844200
v -4.177306 -2.742831 2.844200
v -4.190145 -4.742830 4.385023
v -3.782147 -4.742830 4.272114
v -3.782147 -2.742831 4.272114
v -4.522410 -0.809116 3.184374
v -4.585303 -1.044924 2.957108
v -4.177306 -1.044924 2.844200
v -4.114413 -0.809116 3.071465
v -4.190145 -1.044924 4.385023
v -4.253037 -0.809116 4.157757
v -3.845040 -0.809116 4.044848
v -3.782147 -1.044924 4.272114
v -4.135909 -3.035135 2.993788
v -4.177306 -3.190346 2.844200
v -4.177306 -2.879925 2.844200
v -3.782147 -3.190346 4.272114
v -3.823544 -3.035135 4.122526
v -3.782147 -2.879925 4.272114
v -2.790098 -4.742830 3.997576
v -3.185257 -4.742830 2.569662
v -3.143861 -3.035135 2.719250
v -3.185257 -3.190346 2.569662
v -2.790098 -3.190346 3.997576
v -2.831495 -3.035135 3.847987
vn -0.0000 -1.0000 -0.0000
vn -0.1886 0.7071 -0.6815
vn 0.1886 0.7071 0.6815
vn -0.9638 -0.0000 0.2667
vn -0.0000 1.0000 -0.0000
vn 0.9638 -0.0000 -0.2667
vn -0.2667 -0.0000 -0.9638
vn 0.2667 -0.0000 0.9638
vt 0.375000 0.500000
vt 0.221875 0.750000
vt 0.221875 0.500000
vt 0.125000 0.750000
vt 0.125000 0.500000
vt 0.778125 0.539790
vt 0.875000 0.500000
vt 0.875000 0.539790
vt 0.625000 1.000000
vt 0.625000 0.903125
vt 0.625000 0.039790
vt 0.610014 0.250000
vt 0.375000 0.000000
vt 0.778125 0.710210
vt 0.778125 0.526190
vt 0.778125 0.500000
vt 0.569061 0.903125
vt 0.588462 0.903125
vt 0.598163 0.903125
vt 0.625000 0.517460
vt 0.602278 0.346875
vt 0.625000 0.346875
vt 0.602278 0.750000
vt 0.625000 0.732540
vt 0.778125 0.723810
vt 0.607863 0.346875
vt 0.569061 0.346875
vt 0.375000 0.346875
vt 0.375000 0.750000
vt 0.375000 1.000000
vt 0.602278 0.500000
vt 0.610014 1.000000
vt 0.610014 0.000000
vt 0.625000 0.210210
vt 0.375000 0.250000
vt 0.875000 0.710210
vt 0.778125 0.750000
vt 0.375000 0.903125
s 0
g Chair_ChairMaterial
usemtl ChairMaterial
f 130/147/53 113/148/53 110/149/53
f 110/149/53 112/150/53 109/151/53
f 118/152/54 116/153/54 115/154/54
f 120/155/55 122/156/55 121/156/55
f 120/157/56 116/158/56 112/159/56
f 115/154/57 121/160/57 118/152/57
f 123/161/58 124/162/58 125/162/58
f 126/163/58 127/164/58 128/165/58
f 131/166/54 124/167/54 123/168/54
f 127/164/55 133/169/55 134/170/55
f 123/161/57 134/170/57 131/166/57
f 118/152/58 127/171/58 125/162/58
f 116/158/59 125/172/59 124/173/59
f 124/167/59 130/147/59 110/174/59
f 126/163/60 129/175/60 133/169/60
f 114/156/60 122/156/60 112/176/60
f 132/177/58 134/170/58 129/175/58
f 130/147/53 129/175/53 113/148/53
f 110/149/53 113/148/53 112/150/53
f 118/152/54 117/162/54 116/153/54
f 120/155/55 119/178/55 122/156/55
f 112/159/56 119/179/56 120/157/56
f 120/157/56 115/180/56 116/158/56
f 116/158/56 109/181/56 112/159/56
f 115/154/57 120/182/57 121/160/57
f 131/166/54 132/177/54 124/167/54
f 127/164/55 126/163/55 133/169/55
f 123/161/57 127/171/57 134/170/57
f 111/162/58 117/162/58 118/152/58
f 118/152/58 121/160/58 122/183/58
f 114/183/58 128/183/58 127/171/58
f 118/152/58 122/183/58 114/183/58
f 125/162/58 111/162/58 118/152/58
f 127/171/58 123/161/58 125/162/58
f 118/152/58 114/183/58 127/171/58
f 110/174/59 109/181/59 116/158/59
f 116/158/59 117/168/59 111/168/59
f 116/158/59 111/168/59 125/172/59
f 124/173/59 110/174/59 116/158/59
f 124/167/59 132/177/59 130/147/59
f 126/163/60 113/184/60 129/175/60
f 112/176/60 113/184/60 126/163/60
f 112/176/60 126/163/60 128/165/60
f 122/156/60 119/178/60 112/176/60
f 112/176/60 128/165/60 114/156/60
f 129/175/58 130/147/58 132/177/58
f 132/177/58 131/166/58 134/170/58
f 134/170/58 133/169/58 129/175/58
o Ottoman
v -2.329070 -4.769885 3.299399
v -2.239348 -4.769885 1.717905
v -2.329070 -3.778544 3.299399
v -2.239348 -3.778544 1.717905
v -0.980539 -3.778544 1.789320
v -0.980539 -4.769885 1.789320
v -1.070261 -4.769885 3.370814
v -1.070261 -3.778544 3.370814
vn -0.9984 -0.0000 -0.0566
vn 0.0566 -0.0000 -0.9984
vn -0.0566 -0.0000 0.9984
vn -0.0000 -1.0000 -0.0000
vn -0.0000 1.0000 -0.0000
vn 0.9984 -0.0000 0.0566
vt 0.625000 0.000000
vt 0.375000 0.250000
vt 0.375000 0.000000
vt 0.625000 0.250000
vt 0.375000 0.500000
vt 0.625000 1.000000
vt 0.375000 0.750000
vt 0.625000 0.750000
vt 0.125000 0.750000
vt 0.125000 0.500000
vt 0.875000 0.500000
vt 0.625000 0.500000
vt 0.375000 1.000000
vt 0.875000 0.750000
s 0
g Ottoman_Ottoman
usemtl Ottoman
f 137/185/61 136/186/61 135/187/61
f 138/188/62 140/189/62 136/186/62
f 137/190/63 141/191/63 142/192/63
f 140/189/64 135/193/64 136/194/64
f 138/195/65 142/192/65 139/196/65
f 139/196/66 141/191/66 140/189/66
f 137/185/61 138/188/61 136/186/61
f 138/188/62 139/196/62 140/189/62
f 137/190/63 135/197/63 141/191/63
f 140/189/64 141/191/64 135/193/64
f 138/195/65 137/198/65 142/192/65
f 139/196/66 142/192/66 141/191/66
o Cube.001
v -0.940111 -4.757846 -1.184831
v -0.940111 -4.580623 -1.184831
v 1.213878 -4.757846 2.902721
v 1.213878 -4.580623 2.902721
v 1.399957 -4.757846 -2.417960
v 1.399957 -4.580623 -2.417960
v 3.553946 -4.757846 1.669592
v 3.553946 -4.580623 1.669592
v 3.219651 -4.757846 1.845754
v 2.885355 -4.757846 2.021915
v 2.551060 -4.757846 2.198076
v 2.216764 -4.757846 2.374237
v 1.882469 -4.757846 2.550399
v 1.548174 -4.757846 2.726560
v 1.548174 -4.580623 2.726560
v 1.882469 -4.580623 2.550399
v 2.216764 -4.580623 2.374237
v 2.551060 -4.580623 2.198076
v 2.885355 -4.580623 2.021915
v 3.219651 -4.580623 1.845754
v -0.605816 -4.757846 -1.360993
v -0.271520 -4.757846 -1.537154
v 0.062775 -4.757846 -1.713315
v 0.397071 -4.757846 -1.889476
v 0.731366 -4.757846 -2.065638
v 1.065661 -4.757846 -2.241799
v 1.065661 -4.580623 -2.241799
v 0.731366 -4.580623 -2.065638
v 0.397071 -4.580623 -1.889476
v 0.062775 -4.580623 -1.713315
v -0.271520 -4.580623 -1.537154
v -0.605816 -4.580623 -1.360993
vn -0.8847 -0.0000 0.4662
vn 0.4662 -0.0000 0.8847
vn 0.8847 -0.0000 -0.4662
vn -0.4662 -0.0000 -0.8847
vn -0.0000 -1.0000 -0.0000
vn -0.0000 1.0000 -0.0000
vt 0.625000 0.000000
vt 0.375000 0.250000
vt 0.375000 0.000000
vt 0.625000 0.464286
vt 0.375000 0.500000
vt 0.375000 0.464286
vt 0.625000 0.500000
vt 0.375000 0.750000
vt 0.625000 0.964286
vt 0.375000 1.000000
vt 0.375000 0.964286
vt 0.339286 0.750000
vt 0.339286 0.500000
vt 0.875000 0.500000
vt 0.839286 0.750000
vt 0.839286 0.500000
vt 0.660714 0.500000
vt 0.625000 0.750000
vt 0.696429 0.500000
vt 0.660714 0.750000
vt 0.732143 0.500000
vt 0.696429 0.750000
vt 0.767857 0.500000
vt 0.732143 0.750000
vt 0.803571 0.500000
vt 0.767857 0.750000
vt 0.803571 0.750000
vt 0.160714 0.500000
vt 0.125000 0.750000
vt 0.125000 0.500000
vt 0.196429 0.500000
vt 0.160714 0.750000
vt 0.232143 0.500000
vt 0.196429 0.750000
vt 0.267857 0.500000
vt 0.232143 0.750000
vt 0.303571 0.500000
vt 0.267857 0.750000
vt 0.303571 0.750000
vt 0.375000 0.785714
vt 0.625000 0.785714
vt 0.375000 0.821429
vt 0.625000 0.821429
vt 0.375000 0.857143
vt 0.625000 0.857143
vt 0.375000 0.892857
vt 0.625000 0.892857
vt 0.375000 0.928571
vt 0.625000 0.928571
vt 0.625000 0.250000
vt 0.375000 0.285714
vt 0.625000 0.285714
vt 0.375000 0.321429
vt 0.625000 0.321429
vt 0.375000 0.357143
vt 0.625000 0.357143
vt 0.375000 0.392857
vt 0.625000 0.392857
vt 0.375000 0.428571
vt 0.625000 0.428571
vt 0.625000 1.000000
vt 0.875000 0.750000
s 0
g Cube.001_LesRed
usemtl LesRed
f 162/202/68 151/204/68 149/203/68
f 150/205/69 149/203/69 147/206/69
f 149/203/71 151/211/71 168/210/71
f 162/215/72 150/205/72 148/216/72
f 148/216/70 147/206/70 168/238/70
f 162/202/68 149/203/68 150/205/68
f 150/205/69 147/206/69 148/216/69
f 149/203/71 168/210/71 147/206/71
f 162/215/72 148/216/72 169/218/72
f 148/216/70 168/238/70 169/239/70
g Cube.001_LesOrange
usemtl LesOrange
f 161/217/72 162/215/72 169/218/72
f 151/211/71 152/235/71 167/237/71
f 169/239/70 168/238/70 167/240/70
f 161/258/68 152/257/68 151/204/68
f 161/217/72 169/218/72 170/220/72
f 151/211/71 167/237/71 168/210/71
f 169/239/70 167/240/70 170/241/70
f 161/258/68 151/204/68 162/202/68
g Cube.001_LesLightOrange
usemtl LesLightOrange
f 160/219/72 161/217/72 170/220/72
f 152/235/71 153/233/71 166/236/71
f 170/241/70 167/240/70 166/242/70
f 160/256/68 153/255/68 152/257/68
f 160/219/72 170/220/72 171/222/72
f 152/235/71 166/236/71 167/237/71
f 170/241/70 166/242/70 171/243/70
f 160/256/68 152/257/68 161/258/68
g Cube.001_LesWhite
usemtl LesWhite
f 159/221/72 160/219/72 171/222/72
f 153/233/71 154/231/71 165/234/71
f 171/243/70 166/242/70 165/244/70
f 159/254/68 154/253/68 153/255/68
f 159/221/72 171/222/72 172/224/72
f 153/233/71 165/234/71 166/236/71
f 171/243/70 165/244/70 172/245/70
f 159/254/68 153/255/68 160/256/68
g Cube.001_LesPink
usemtl LesPink
f 158/223/72 159/221/72 172/224/72
f 154/231/71 155/229/71 164/232/71
f 172/245/70 165/244/70 164/246/70
f 158/252/68 155/251/68 154/253/68
f 158/223/72 172/224/72 173/225/72
f 154/231/71 164/232/71 165/234/71
f 172/245/70 164/246/70 173/247/70
f 158/252/68 154/253/68 159/254/68
g Cube.001_LesDustyPink
usemtl LesDustyPink
f 157/214/72 158/223/72 173/225/72
f 155/229/71 156/226/71 163/230/71
f 173/247/70 164/246/70 163/209/70
f 157/250/68 156/249/68 155/251/68
f 157/214/72 173/225/72 174/213/72
f 155/229/71 163/230/71 164/232/71
f 173/247/70 163/209/70 174/207/70
f 157/250/68 155/251/68 158/252/68
g Cube.001_LesBlush
usemtl LesBlush
f 144/199/67 143/201/67 145/200/67
f 174/207/70 163/209/70 143/208/70
f 146/212/72 157/214/72 174/213/72
f 156/226/71 145/228/71 143/227/71
f 146/248/68 145/200/68 156/249/68
f 144/199/67 145/200/67 146/248/67
f 174/207/70 143/208/70 144/259/70
f 146/212/72 174/213/72 144/260/72
f 156/226/71 143/227/71 163/230/71
f 146/248/68 156/249/68 157/250/68
